<?xml version="1.0" encoding="utf-8"?>
<!-- Generator: Adobe Illustrator 27.0.0, SVG Export Plug-In . SVG Version: 6.00 Build 0)  -->
<svg version="1.1" id="Layer_1" xmlns="http://www.w3.org/2000/svg" xmlns:xlink="http://www.w3.org/1999/xlink" x="0px" y="0px"
	 viewBox="0 0 131.4 347.97" style="enable-background:new 0 0 131.4 347.97;" xml:space="preserve">
<path d="M61.14,304.87c0,1.54,0,2.94,0,4.27c0.29,0.1,0.46,0.23,0.55,0.19c2.91-1.28,6.1-0.77,9.12-1.42
	c3.99-0.86,7.81-2.11,11.22-4.37c1.53-1.01,3.13-1.91,4.91-1.38c2.27,0.67,4.57,1.45,6.28,3.28c0.55,0.58,1.05,1.22,1.62,1.76
	c1.24,1.18,1.53,2.35,0.79,4.06c-0.73,1.69-0.44,3.76-1.67,5.35c-0.15,0.19-0.02,0.62,0.05,0.93c0.4,1.99-0.35,4.12,0.71,6.04
	c0.07,0.13,0.12,0.36,0.05,0.47c-1.17,1.86-0.15,4.01-0.79,5.92c-0.17,0.49-0.44,0.95-0.71,1.4c-0.42,0.73-0.85,1.46-1.33,2.14
	c-0.35,0.5-0.78,0.95-1.2,1.4c-0.18,0.19-0.47,0.3-0.6,0.51c-0.9,1.5-1.3,1.44-2.73,0.43c-2.09-1.48-2.54-3.48-2.41-5.82
	c0.04-0.67-0.07-1.35-0.13-2.17c-1.6,0.29-2.9,0.57-4.22,0.74c-0.85,0.11-1.73,0.11-2.58,0.05c-1.26-0.09-1.54,0.22-1.99,1.4
	c-0.67,1.77-1.46,3.51-2.38,5.15c-0.61,1.1-1.51,1.09-2.3,0.13c-1.26-1.56-2.3-3.21-2.62-5.28c-0.41-2.66-1.31-5.29-1.37-7.96
	c-0.06-2.26-0.41-4.42-0.82-6.6c-0.51-2.69-2.7-4.55-5.79-5c-0.97,2.88-2.85,5.39-3.41,8.54c-0.26,1.47-1.2,2.86-3.09,3.24
	c-2.41,0.49-4.76,1.25-7.14,1.9c-0.22,0.06-0.42,0.21-0.76,0.38c0.05,0.67,0.06,1.38,0.16,2.07c0.33,2.24,0.6,4.4-1.18,6.31
	c-0.6,0.64-0.63,1.78-1.06,2.61c-0.85,1.64-1.93,1.88-3.13,0.49c-1.02-1.19-1.94-2.59-2.43-4.06c-1.51-4.54-2.2-9.27-2.92-13.99
	c-0.19-1.26-0.46-2.51-0.68-3.76c-0.43-2.39-1.86-3.82-4.19-4.38c-0.38-0.09-0.76-0.19-1.38-0.35c1.33-1.52,2.5-2.86,4.57-2.67
	c1.43,0.13,2.89,0.18,4.25,0.56c1.57,0.44,2.91,0.4,4.33-0.48c2.16-1.34,4.49-2.43,6.63-3.8c1.94-1.24,3.95-1.61,6.17-1.25
	c0.39,0.06,0.78,0.09,1.76,0.19c-1.31-0.83-2.15-1.37-3.01-1.91c0.26-0.34,0.35-0.55,0.45-0.56c2.76-0.22,5.51-0.44,8.27-0.63
	c1.37-0.09,1.38-0.07,4.31-2.2c-0.27-1.2-0.55-2.49-0.82-3.66c-2.13-0.24-4.01-0.46-5.75-0.66c0.16,1.26,0.33,2.63,0.51,4.08
	c-0.47,0.1-0.95,0.07-1.04,0.24c-0.99,1.84-2.46,1.65-4.23,1.37c-2.63-0.41-5.21,0.06-7.61,1.39c-1.32,0.73-2.78,1.2-4.17,1.81
	c-1.59,0.69-3.31,1.1-4.52,2.56c-0.34,0.41-1.5,0.69-1.86,0.44c-1.84-1.31-3.55-2.81-5.53-4.42c4.57-1.82,8.86-3.49,13.11-5.24
	c1.31-0.54,2.53-1.32,3.82-1.92c0.85-0.4,1.72-0.83,2.63-0.98c1.94-0.32,3.91-0.46,5.84-0.68c-1.14-2.1-1.52-2.33-3.59-1.66
	c-3.49,1.13-6.96,2.32-10.4,3.58c-0.86,0.32-1.64,0.95-2.35,1.56c-0.87,0.75-1.69,0.82-2.6,0.19c-0.52-0.37-1.04-0.75-1.51-1.17
	c-1.13-1.03-2.25-2.04-3.84-2.33c-0.33-0.06-0.61-0.43-1.27-0.92c1.09-0.49,1.91-0.88,2.73-1.23c2.86-1.23,5.96-2.08,8.51-3.76
	c2.37-1.57,4.84-2.23,7.47-2.65c1.9-0.3,3.71,0.09,4.91,1.78c0.49,0.68,0.74,1.53,1.26,2.63c1.36-0.23,2.87-0.58,4.4-0.71
	c1.48-0.13,2.98-0.03,4.57-0.03c0-1.2,0-2.52,0-4.21c-0.99,0.5-1.74,0.87-2.47,1.27c-1.37,0.75-2.79,0.78-4.14,0.08
	c-1.91-0.98-3.76-2.08-5.78-3.21c0.43-0.35,0.75-0.62,1.07-0.89c-0.11-0.07-0.24-0.23-0.34-0.21c-4.75,0.69-9.4,1.67-13.74,3.87
	c-1.91,0.97-4,1.6-5.87,2.64c-1.29,0.72-2.43,1.77-3.45,2.85c-1.54,1.62-2.12,1.86-4.14,0.71c-1.51-0.86-2.89-1.95-4.39-2.84
	c-0.94-0.55-2.02-0.89-3-1.37c-0.39-0.19-1.02-0.62-0.98-0.79c0.12-0.45,0.46-1.02,0.87-1.19c1.17-0.48,2.4-0.86,3.64-1.16
	c3.03-0.73,5.97-1.63,8.79-2.99c1.85-0.89,3.93-1.29,5.9-1.95c2.64-0.89,5.26-1.82,8.07-2.8c-0.05-0.99-0.04-1.84-0.14-2.67
	c-0.07-0.55-0.48-1.09-0.43-1.61c0.27-2.71-1.45-4-3.45-5.16c-0.61-0.35-1.16-0.82-1.96-1.39c0.55-0.52,0.98-0.93,1.41-1.33
	c0.93-0.86,1.96-1.64,2.76-2.6c0.95-1.15,1.99-1.44,3.38-1.01c1.05,0.33,2.15,0.56,3.24,0.74c3.35,0.54,6.66,4.9,6.07,8.26
	c-0.18,1.02-0.93,1.93-1.67,3.39c0.39,0.59,1.1,1.59,1.72,2.64c0.63,1.08,1.16,2.22,1.88,3.63c4.13,0.3,7.97-1.86,12.48-2.94
	c-4.47-2.48-8.55-4.74-12.71-7.04c0.58-0.78,1.31-1.67,1.95-2.63c1.63-2.49,3.93-3.11,6.67-2.4c1.53,0.4,3.05,0.88,4.52,1.47
	c2.76,1.11,4.7,2.84,3.86,6.34c0.15,0.03,0.3,0.07,0.45,0.1c0.51-0.64,1.08-1.24,1.5-1.93c1.3-2.11,2.56-4.24,3.8-6.38
	c0.78-1.35,0.78-2.55-0.22-3.98c-0.87-1.25-1.77-2.32-3.66-3.18c1.17-0.22,1.77-0.38,2.37-0.45c2.06-0.25,4.11-0.46,6.17-0.71
	c1.5-0.18,7.43,3.18,7.85,4.47c0.85,2.61-0.26,6.29-2.43,8.19c-0.27,0.24-0.45,0.58-0.81,1.03c1.38,0.23,2.53,0.42,3.68,0.62
	c3.7,0.63,6.36,2.83,8.33,5.84c0.49,0.74,0.61,2.18,0.22,2.95c-1.12,2.18-2.37,4.41-5.34,4.59c-0.49,0.03-0.96,0.58-1.52,0.94
	c-1.41-2.51-4.14-3.58-6.48-5.15c-0.45-0.3-1.18-0.19-1.92-0.29c0,1.47,0,2.71,0,4.03c1.18,0.32,2.25,0.62,3.32,0.88
	c1.81,0.44,2.58,1.73,2.85,3.43c0.17,1.05-0.05,1.85-1.2,2.28c-1.34,0.51-2.62,1.17-4.14,0.91c-0.37-0.06-0.77,0.07-1.44,0.14
	c0.06,1.22,0.12,2.37,0.2,3.86c2.58-0.35,5.06-0.46,7.41-1.08c1.36-0.36,2.61-0.29,3.91-0.19c1.66,0.13,1.65,0.2,1.97-1.73
	c4.52,0.87,8.6,2.66,12.13,5.64c0.87,0.74,1.26,2.35,0.64,3.88c-0.47,1.17-1.08,2.33-1.83,3.34c-1.26,1.71-3.53,2.21-5.86,1.15
	c-2.36-1.07-4.58-2.45-6.88-3.66c-0.9-0.47-1.85-1.15-2.8-1.19c-3.1-0.13-6.21-0.09-9.3,0.07c-0.64,0.03-1.26,0.83-1.84,1.32
	c-1.36,1.14-2.72,2.24-4.66,1.39c-0.21-0.09-0.54-0.14-0.62-0.3c-0.77-1.74-2-1.08-3.21-0.67c-4.65,1.6-9.29,3.19-13.95,4.75
	C61.88,304.93,61.4,304.86,61.14,304.87z M72.94,279.53c0.39,1.75,0.86,3.26,1.04,4.8c0.19,1.64,0.09,3.31,0.14,4.97
	c0.05,1.95,0.12,3.9,0.19,6.14c0.96-0.32,1.59-0.54,2.16-0.73c0.36-5.46,0.71-10.74,1.09-16.43
	C75.79,278.89,74.23,278.49,72.94,279.53z M84.29,313.66c0.29-0.87,0.12-2.03-0.3-3.17c-0.35-0.95-1.05-1.44-2.05-1.23
	c-1.37,0.29-2.72,0.72-4.08,1.04c-1.72,0.4-3.2,1.71-5.12,1.39c-0.06-0.01-0.14,0.07-0.13,0.06c0.34,1.43,0.67,2.83,1.1,4.63
	c1.15-0.77,2.02-1.39,2.93-1.95c0.59-0.37,1.22-0.9,1.85-0.92C80.36,313.43,82.24,313.59,84.29,313.66z M51.74,309.63
	c-2.75,0.95-5.1,1.76-7.53,2.6c0.42,1.81,0.82,3.49,1.26,5.37c1.6-0.46,3.05-0.79,4.43-1.3c0.44-0.16,0.91-0.77,1.01-1.25
	C51.25,313.35,51.45,311.63,51.74,309.63z M75.72,323.57c2.31-0.38,4.17-0.78,6.06-0.99c3.81-0.43,4.01-0.69,2.79-4.39
	c-1.6-0.91-2.87,0.42-4.3,0.58c-2.11,0.24-3.21,1.84-4.52,3.14C75.5,322.17,75.72,322.9,75.72,323.57z M75.89,320.66
	c-0.07-1.06-0.11-1.67-0.19-2.28c0-0.03-0.42,0-0.64,0c0.02,0.58,0.04,1.16,0.07,1.73C75.14,320.17,75.26,320.21,75.89,320.66z"/>
<path d="M64,226.03c0.19,3.01,0.38,6.02,0.56,9.03c0.19,3.1,0.64,6.23-0.12,9.29c-0.46,1.84-1.15,3.59-2.7,4.95
	c-1.94,1.69-3.99,3.1-6.46,3.85c-2.52,0.77-5.85-0.63-5.72-3.59c0.03-0.76-0.27-1.58-0.59-2.3c-0.8-1.82-1.65-3.63-2.58-5.38
	c-0.63-1.18-1.78-1.36-2.48-0.24c-1.95,3.14-5.27,4.23-8.22,5.89c-0.27,0.15-0.59,0.25-0.9,0.27c-2.25,0.2-4.5,0.38-7.04,0.59
	c0.55-0.52,0.93-0.97,1.4-1.3c1.87-1.37,3.18-3.14,4.43-5.09c1.36-2.13,3.09-4.06,4.89-5.85c2.09-2.07,4.53-3.78,6.64-5.84
	c2.11-2.06,3.06-4.67,2.94-8.15c-3.64,2.98-6.56,6.42-11.44,6.66c0.18,0.39,0.3,0.64,0.41,0.89c-0.86,0.65-1.75,1.08-2.7,0.17
	c-2.58,4.24-3.33,4.36-8.71,3.77c-0.21-0.76-0.04-1.33,0.72-1.75c1.38-0.77,2.83-1.47,4.06-2.44c0.87-0.68,1.39-1.78,2.12-2.64
	c2.98-3.51,5.94-7.05,9.01-10.49c1.18-1.32,1.89-2.52,0.67-4.15c-0.12-0.17-0.09-0.45-0.14-0.76c1.33-0.94,2.78-1.24,4.24-0.51
	c1.27,0.64,2.18,0.35,3.27-0.43c1.97-1.42,4.05-2.68,6.13-3.94c0.33-0.2,0.88-0.03,1.59-0.03c-0.43-0.58-0.68-0.93-0.98-1.34
	c0.3-0.61,0.61-1.25,1.05-2.15c-2.41,0.56-4.45,1.26-6.24,2.63c-0.69,0.53-1.41,1.08-2.19,1.45c-1.64,0.8-2.9,0.26-3.82-1.55
	c-1.43-0.14-2.88-0.28-4.33-0.42c0.42,0.91,0.83,1.48,0.28,2.4c-2.61,4.33-8.2,4.03-11.2,1.72c-0.45-0.35-0.46-1.26-0.7-1.9
	c-1.72-4.47-1.48-8.69,1.44-12.66c0.68-0.92,1.52-1.9,1.21-3.56c-1.11-0.39-2.35-0.83-3.53-1.25c1.37-0.61,2.86-1.26,4.34-1.96
	c1.5-0.7,2.96-0.78,4.27,0.32c1.1,0.93,2.32,1.06,3.6,0.74c4.16-1.06,8.31-2.17,12.66-3.3c-0.17-0.73-0.29-1.33-0.44-1.91
	c-0.27-0.99-0.58-1.98-0.84-2.97c-0.28-1.06-0.55-1.91-1.67-2.66c-1.5-1-2.54-2.67-3.77-4.04c0.07-0.12,0.09-0.24,0.14-0.25
	c2.48-0.78,4.06-2.41,5.3-4.71c1.23-2.29,3.22-2.8,5.66-1.68c2.81,1.28,5.51,2.81,8.24,4.26c0.33,0.18,0.73,0.46,0.84,0.78
	c0.89,2.54,2.62,5.01,0.88,7.85c-0.07,0.11-0.01,0.31-0.01,0.53c2.05,0.58,3.91-0.29,5.8-0.79c3-0.79,5.92-1.84,9.07-2.01
	c2.81-0.16,4.85,1.14,6.73,2.96c1.91,1.85,3.38,3.96,4.37,6.47c0.63,1.61,0.97,3.17,0.76,4.88c-0.29,2.4-0.95,2.85-3.28,3.71
	c-2.11,0.78-4.13,1.08-6.29,0.6c-0.69-0.15-1.36-0.46-2.05-0.7c-0.02,0.15-0.07,0.44-0.09,0.57c-2.46-0.03-4.89-0.03-7.33-0.11
	c-1.13-0.04-2.33,0.25-3.23-0.98c-0.25-0.34-1.41,0-2.44,0.04c0.65,1.78,1.15,3.18,1.67,4.58c0.61,1.64,0.57,2.51-0.9,3.23
	c-2.19,1.08-3.91,2.87-6.32,3.67c-1.58,0.52-2.9,1.81-4.51,2.87c1.96,1.1,2.79,2.81,3.23,4.96c0.49,2.38,3.8,2.78,5.4,0.54
	c1.79-2.5,4.13-4.35,6.32-6.39c0.23-0.22,0.4-0.5,0.68-0.85c-0.31-0.59-0.64-1.2-1.02-1.92c0.91-0.42,1.77-0.99,2.71-1.21
	c0.98-0.24,2.03-0.2,3.05-0.17c0.43,0.02,1.09,0.24,1.22,0.55c0.58,1.37,1.88,1.88,2.92,2.7c1.58,1.26,2.51,4.42,1.22,5.8
	c-1.23,1.32-2.3,3.3-4.74,3.05c-0.7-0.07-1.5,0.4-2.2,0.73c-2.42,1.13-4.89,1.83-7.49,1.08c-0.7,0.57-1.34,1.1-2.18,1.79
	c2.1,1.88,4,3.8,6.13,5.42c2.96,2.24,6.04,4.35,9.18,6.33c1.53,0.96,3.33,1.49,5.01,2.22c3.82,1.66,7.64,3.3,11.45,4.99
	c0.4,0.18,0.71,0.56,1.17,0.94c-2.45,1.28-4.77,2.45-7.04,3.7c-1.18,0.65-2.26,1.49-3.43,2.16c-1.1,0.64-2.22,1.3-3.41,1.71
	c-2.04,0.7-3.72-0.1-5.15-1.59c-0.6-0.63-1.16-1.33-1.85-1.84c-2.95-2.16-5-5.1-7.17-7.97c-2.64-3.5-5.45-6.88-8.21-10.29
	c-0.18-0.22-0.48-0.33-0.73-0.49C64.36,225.88,64.18,225.95,64,226.03z M82.54,187.75c-1-2.49-1-2.48-3.11-2.02
	c-1.79,0.39-3.6,0.69-5.37,1.14c-5.63,1.41-11.27,2.76-16.85,4.36c-3.2,0.92-6.26,2.32-9.4,3.45c-0.47,0.17-1.06,0.17-1.56,0.07
	c-1.51-0.31-3.31,0.84-3.4,2.33c-0.08,1.32-0.02,2.65-0.02,3.98c1.54,0.39,1.52,0.37,2.59-0.25c1.31-0.76,2.59-1.58,3.97-2.18
	c3.64-1.59,7.36-2.99,10.98-4.64c2.41-1.1,4.7-1.49,7.01,0.08c0.89,0.61,1.7,0.61,2.68,0.18c1.73-0.74,3.64-1.01,5.25-2.11
	c1.11-0.76,2.24-0.65,3.25,0.35c0.51,0.51,1.07,1.15,2.16,0.53c-1-0.73-1.88-1.37-2.82-2.05C79.65,189.76,81.12,188.74,82.54,187.75
	z M47.73,237.79c1.87,0.66,3.48,1.23,5.08,1.81c1.18,0.42,1.89,0.18,2.05-1.06c0.25-1.91,1.59-3.7,0.68-5.75
	c-0.12-0.27-0.02-0.63-0.01-0.95c0.1-2.78,0.26-5.55,0.28-8.32c0.02-2.62,0.18-5.28-0.8-7.78c-0.3-0.77-0.77-1.77-1.43-2.04
	c-1.5-0.62-3.16-0.85-4.76-1.24c-0.08,0.16-0.16,0.32-0.24,0.47c1.78,0.81,3.14,1.89,3.44,3.96c0.32,2.22-1.08,3.29-2.82,4.38
	c1.64,1.67,3.11,3.23,4.67,4.7c0.83,0.78,1.08,1.59,0.49,2.53c-1.61,2.54-2.99,5.25-5.32,7.28
	C48.45,236.3,48.13,237.15,47.73,237.79z M81.51,209.82c1.31,0.47,1.96,0.77,2.3-0.03c0.12-0.28-0.26-0.78-0.6-1.7
	C82.58,208.73,82.22,209.09,81.51,209.82z M74.36,212.55c0.1,0.17,0.2,0.34,0.3,0.51c0.34-0.29,0.68-0.58,1.02-0.86
	c-0.08-0.09-0.15-0.19-0.23-0.28C75.09,212.13,74.73,212.34,74.36,212.55z M68.02,218.01c-0.06-0.16-0.13-0.32-0.19-0.49
	c-0.3,0.12-0.6,0.24-0.9,0.36c0.06,0.13,0.14,0.37,0.17,0.36C67.42,218.19,67.72,218.09,68.02,218.01z"/>
<path d="M38.18,51.83c-1.65-0.82-3.21-2.13-4.25-4.17c-0.89-1.75-2.84-2.47-4.46-3.45c-0.32-0.19-0.68-0.32-1.38-0.65
	c2.43-0.83,4.31-1.96,6.64-1.9c1.17,0.03,2.39-0.26,3.53-0.59c2.75-0.81,5.48-1.74,8.21-2.62c1.83-0.59,1.98-0.93,1.73-2.75
	c-0.13-0.98-0.05-2.02,0.07-3.01c0.18-1.48-0.31-2.44-1.74-2.99c-0.81-0.31-1.61-0.75-2.3-1.27c-0.49-0.37-0.81-0.96-1.08-1.29
	c1.56-1.06,2.8-1.97,4.11-2.78c1.75-1.08,3.54-2.09,5.34-3.09c0.3-0.17,0.8-0.23,1.11-0.1c1.79,0.73,3.59,1.44,5.31,2.32
	c2.74,1.42,3.34,2.83,2.73,5.85c-0.11,0.54-0.16,1.1-0.25,1.79c-1.63,0.33-2.34,1.37-2.11,3.25c1.58-0.16,2.99-0.58,4.33-1.26
	c2.12-1.08,4.29-2.07,6.33-3.29c1.29-0.77,2.63-0.67,3.63-0.04c3.22,2.02,6.47,4.21,7.1,8.36c0.43,2.84-1.23,6.03-4.49,6.56
	c-0.91,0.15-1.85,0.13-3.38,0.22c2.8,1.7,2.92,4.11,3.23,6.44c0.04,0.31,0.1,0.65,0.03,0.95c-0.56,2.62-5.39,4.54-7.69,3.02
	c-0.56-0.37-1.23-0.99-1.32-1.58c-0.34-2.22-1.85-3.1-3.75-3.47c-4.17-0.81-4.89-1.47-4.4,4.17c1.03,0.24,2.09,0.61,3.18,0.72
	c2.14,0.23,3.41,1.67,4.53,3.21c1.08,1.47,1.96,3.09,2.89,4.66c0.98,1.65,0.54,1.61-0.4,3.46c-1.37,2.7-3.03,3.08-5.76,2.4
	c-1.29-0.32-2.89,0.58-4.34,0.93c0.25,1.77,0.36,1.95,1.75,1.77c2.53-0.32,5.05-0.75,7.57-1.16c1.34-0.22,2.67-0.47,3.99-0.78
	c2.22-0.52,4.43-1.12,6.65-1.65c2.1-0.5,3.94,0.03,5.58,1.42c0.54,0.46,1.14,0.92,1.79,1.18c3.04,1.19,4.22,3.8,4.94,6.63
	c0.75,2.93-0.45,5.11-3.17,6.4c-0.48,0.23-0.9,0.59-1.39,0.81c-0.47,0.22-1.05,0.57-1.48,0.47c-1.93-0.46-3.95-0.72-5.46-2.31
	c-3.91-4.13-3.93-4.11-9.49-4.17c-2.55-0.02-5.1,0-7.85,0c-0.15-0.38-0.37-0.96-0.44-1.14c-0.3,0.54-0.78,1.34-1.21,2.16
	c-0.17,0.33-0.35,0.73-0.34,1.09c0.05,1.35,0.03,2.73,0.3,4.04c0.28,1.38,0.4,2.66-0.31,3.94c-0.17,0.31-0.16,0.78-0.1,1.15
	c0.52,3.08,0.81,6.15-0.31,9.18c-0.1,0.27,0.06,0.63,0.05,0.94c-0.13,3.55-1.6,6.39-4.5,8.49c-1.09,0.79-2.11,1.67-3.22,2.44
	c-2.2,1.53-3.78,1.45-5.62-0.54c-1.01-1.1-1.82-2.44-2.47-3.79c-0.78-1.63-1.11-3.5-1.99-5.06c-0.76-1.34-1.18-2.75-1.73-4.14
	c-0.5-1.27-1.37-2.4-2.3-3.96c2.19,0.9,3.86,1.91,5.32,3.22c1.35,1.21,2.91,1.94,4.61,2.42c1.29,0.36,1.74,0.11,2-1.24
	c0.46-2.33,1.04-4.62,0.88-7.07c-0.19-3.1-0.05-6.22-0.05-9.52c-0.59-0.11-1.26-0.45-1.78-0.3c-2.43,0.7-4.82,1.52-7.21,2.31
	c-2.33,0.78-4.61,1.74-6.98,2.33c-1.9,0.48-3.35,1.36-4.5,2.9c-1.5,2.01-4.01,2.48-5.99,1.05c-1.52-1.09-3.03-1.92-4.99-2.06
	c-1.85-0.13-3.7-0.58-5.5-1.07c-0.69-0.19-1.23-0.89-2.18-1.61c3.92-0.74,6.88-2.96,10.71-2.98c2.45-0.02,4.9-1.21,7.33-1.91
	c2.2-0.63,4.38-1.35,6.6-1.95c3.92-1.07,7.86-2.07,11.78-3.14c0.64-0.17,1.23-0.54,2.04-0.91c-1.39-1.54-3.12-1.38-4.87-2.01
	c2.06-1.5,3.9-2.84,5.87-4.27c0.48,0.54,0.98,1.09,1.47,1.64c0.11-0.03,0.23-0.06,0.34-0.1c-0.14-0.5-0.28-0.99-0.46-1.64
	c0.39-1.36,2.6-1.64,2.65-3.66c-1.47,0.42-2.85,0.7-4.13,1.21c-1.68,0.67-1.95-1.58-3.51-1.28c0.6,0.65,1.19,1.31,1.85,2.03
	c-1.02,0.69-1.99,1.35-2.97,2.01c-2.13,1.42-4.08,2.98-5.47,5.24c-1.27,2.07-2.47,2.2-4.36,0.8c-2.08-1.54-4.11-3.17-6.54-5.05
	c2.37-0.83,4.42-1.46,6.39-2.27c2.14-0.88,4.23-1.87,6.28-2.94c1.95-1.01,3.82-2.18,5.8-3.32c-0.15-1.17-0.27-2.15-0.44-3.48
	c-0.86,0.38-1.46,0.53-1.93,0.87c-2.65,1.88-5.14,4.03-7.94,5.66c-2.6,1.51-5.51,2.47-8.28,3.67c-0.36,0.16-0.78,0.21-1.11,0.41
	c-2.5,1.5-5.08,1.31-8.05,0.42c0.77-0.43,1.33-1.01,1.81-0.96c1.89,0.21,2.48-1.8,4.05-2.22c0.72-0.19,1.33-1.27,2.01-1.92
	c1.77-1.68,3.18-3.72,4.77-5.58C35.12,55.25,36.62,53.6,38.18,51.83z M71.49,43.65c-1.6-2.44-3.84-3.31-6.71-2.52
	c-0.92,0.25-1.87,0.41-2.8,0.6c-2.25,0.45-2.26,0.45-2.3,2.9c1.6-0.1,1.6-0.1,3.47-1.24C66.53,41.32,68.24,41.4,71.49,43.65z
	 M44.9,47.43c-0.16-0.21-0.31-0.41-0.47-0.62c-0.53,0.46-1.06,0.93-1.59,1.39c0.13,0.16,0.26,0.32,0.39,0.49
	C43.79,48.27,44.34,47.85,44.9,47.43z M59.66,76.06c0.16-0.2,0.32-0.4,0.47-0.6c-0.55-0.4-1.1-0.79-1.65-1.19
	c-0.1,0.13-0.19,0.26-0.29,0.38C58.68,75.13,59.17,75.6,59.66,76.06z"/>
<path d="M23.45,137.68c3.43-1.43,6.52-2.67,9.57-4c1-0.43,2.02-0.95,2.83-1.66c2.21-1.96,4.37-3.86,7.27-4.86
	c1.22-0.42,2.12-1.75,3.17-2.66c0.36-0.31,0.71-0.81,1.12-0.87c2.49-0.34,3.55-2.2,4.77-4.28c-1.12-0.76-2.21-1.5-3.45-2.35
	c0.59-0.95,1.54-1.34,2.5-1.52c2.49-0.48,5-0.88,7.51-1.23c0.41-0.06,0.93,0.19,1.32,0.44c1.81,1.15,3.64,2.3,5.38,3.56
	c1.6,1.16,1.36,4.58-0.54,5.89c-1.42,0.98-3.06,1.63-4.62,2.41c-1.12,0.56-2.25,1.1-3.1,1.51c0.8,2.7,1.51,5.08,2.26,7.61
	c0.41-0.06,0.88-0.06,1.3-0.2c2.61-0.91,5.24-1.78,7.8-2.83c1.62-0.66,3.14-1.57,4.68-2.41c1.61-0.87,3.18-1.27,5.01-0.54
	c2.29,0.91,4.74,1.52,6.28,3.64c0.47,0.65,0.86,1.56,0.85,2.35c-0.03,4.48-4.65,6.85-7.85,5.79c-0.23-0.07-0.43-0.21-0.65-0.31
	c-2.29-1.06-4.56-1.42-7.05-0.51c-2.13,0.78-4.39,1.23-6.9,1.91c0.85,1.65,1.51,3.08,2.3,4.44c0.87,1.52,1.75,3.05,2.83,4.43
	c0.81,1.03,1.98,1.77,2.89,2.73c2.54,2.69,5.6,4.49,9.14,5.43c1.52,0.41,3.1,0.61,4.92,0.95c0.95-5.23,1.03-10.24,0.76-15.55
	c0.53,0.48,1.09,0.73,1.17,1.08c0.5,2.27,2.42,3.76,3.1,5.91c0.42,1.33,1.68,2.33,1.47,3.93c-0.03,0.25,0.46,0.61,0.76,0.86
	c0.9,0.78,1.85,1.5,2.74,2.3c1.15,1.03,1.72,2.24,1.22,3.83c-0.4,1.27-0.79,2.55-0.97,3.89c-0.05,0.37-0.23,0.85-0.51,1.04
	c-2.21,1.51-4.16,3.48-6.82,4.25c-0.7,0.2-1.53,0.28-2.22,0.11c-2.08-0.51-4.35-0.49-6.26-1.29c-2.98-1.24-5.95-2.55-8.66-4.45
	c-2.01-1.41-3.4-3.31-5.08-4.98c-0.73-0.72-1.34-1.57-1.91-2.43c-1.72-2.58-3.41-5.18-5.08-7.79c-1.07-1.68-2.03-3.44-3.14-5.1
	c-0.95-1.42-1.13-1.46-2.76-0.74c-0.78,0.35-1.52,0.84-2.2,1.38c-1.24,0.98-1.81,1.08-3.22,0.26c-1.21-0.71-2.41-1.45-4.16-2.5
	c0.29,4.5-0.1,8.42,1.04,12.69c1.2-0.72,2.21-1.27,3.15-1.9c1.05-0.71,2.05-1.51,3.08-2.26c0.57-0.41,1.04-0.35,1.37,0.54
	c-1.43,1-1.71,2.57-1.84,4.27c-0.09,1.09-0.52,2.16-0.86,3.22c-0.46,1.43-0.94,2.86-1.5,4.25c-0.32,0.81-0.76,1.58-1.22,2.31
	c-0.85,1.34-1.76,2.64-2.79,4.16c-0.57,0-1.41,0-2.37,0c-0.03-0.61-0.05-1.14-0.08-1.68c-2.12-0.53-0.13,1.72-1.25,1.88
	c-1.13-0.88-2.25-1.78-3.39-2.65c-1.23-0.94-1.85-2.13-1.71-3.71c0.2-2.12,0.47-4.24,0.48-6.36c0.02-2.63-0.2-5.26-0.29-7.9
	c-0.08-2.32-0.1-4.63-0.22-6.95c-0.07-1.33-0.3-2.65-0.49-4.24C30.76,139.38,27.31,138.58,23.45,137.68z M52.12,138.56
	c-0.79-1.67-1.43-3.21-2.26-4.64c-0.32-0.54-1.04-0.91-1.66-1.21c-3.25-1.57-6.09,0.35-9.01,0.85c1.15,1.39,2.22,2.62,3.22,3.91
	c1.2,1.54-0.09,3.39,0.5,5.23C46,141.31,48.95,139.99,52.12,138.56z"/>
</svg>
